<svg width="28" height="21" viewBox="0 0 28 21" fill="none" xmlns="http://www.w3.org/2000/svg">
<rect y="0.338867" width="28" height="20" rx="10" fill="#636F88"/>
<path fill-rule="evenodd" clip-rule="evenodd" d="M14.4418 4.06359C14.6859 4.30767 14.6859 4.7034 14.4418 4.94747L9.67539 9.71386H19.8332C20.1783 9.71386 20.4582 9.99369 20.4582 10.3389C20.4582 10.684 20.1783 10.9639 19.8332 10.9639H9.67539L14.4418 15.7303C14.6859 15.9743 14.6859 16.3701 14.4418 16.6141C14.1977 16.8582 13.802 16.8582 13.5579 16.6141L7.72456 10.7808C7.48048 10.5367 7.48048 10.141 7.72456 9.89692L13.5579 4.06359C13.802 3.81951 14.1977 3.81951 14.4418 4.06359Z" fill="white"/>
</svg>
