<svg width="21" height="20" viewBox="0 0 21 20" fill="none" xmlns="http://www.w3.org/2000/svg">
<path fill-rule="evenodd" clip-rule="evenodd" d="M8.46711 1.04169H12.5326C12.6272 1.04167 12.7008 1.04166 12.7704 1.04588C13.6541 1.0994 14.428 1.65714 14.7582 2.47857C14.7842 2.54332 14.8075 2.61317 14.8374 2.70291L14.8428 2.71905C14.8806 2.8324 14.8912 2.86357 14.9013 2.88856C15.0514 3.26194 15.4031 3.51546 15.8048 3.53979C15.8315 3.5414 15.8675 3.54169 15.9952 3.54169L16.0344 3.54169C16.3044 3.54165 16.487 3.54163 16.6413 3.55692C18.1235 3.70377 19.2961 4.87635 19.4429 6.35858C19.4582 6.51283 19.4582 6.68776 19.4582 6.94467L19.4582 13.5268C19.4582 14.2042 19.4582 14.7505 19.422 15.1929C19.3848 15.6484 19.3062 16.0486 19.1176 16.4187C18.818 17.0067 18.3399 17.4848 17.7519 17.7844C17.3817 17.973 16.9816 18.0517 16.5261 18.0889C16.0836 18.125 15.5373 18.125 14.8599 18.125H6.13974C5.46238 18.125 4.91604 18.125 4.47362 18.0889C4.01809 18.0517 3.61797 17.973 3.24779 17.7844C2.65978 17.4848 2.18172 17.0067 1.88211 16.4187C1.6935 16.0486 1.61486 15.6484 1.57765 15.1929C1.5415 14.7505 1.5415 14.2041 1.54151 13.5268L1.54151 6.98104C1.54151 6.96874 1.54151 6.95661 1.54151 6.94467C1.54147 6.68776 1.54145 6.51283 1.55674 6.35858C1.70359 4.87634 2.87616 3.70377 4.3584 3.55692C4.51268 3.54163 4.69531 3.54165 4.96529 3.54169C4.97816 3.54169 4.99122 3.54169 5.0045 3.54169C5.13214 3.54169 5.16817 3.5414 5.19488 3.53979C5.59656 3.51546 5.9483 3.26194 6.0984 2.88856C6.10845 2.86357 6.11913 2.8324 6.15692 2.71905C6.15874 2.71359 6.16053 2.7082 6.1623 2.70289C6.1922 2.61315 6.21547 2.54331 6.24149 2.47857C6.57172 1.65714 7.34554 1.0994 8.22924 1.04588C8.29889 1.04166 8.37252 1.04167 8.46711 1.04169ZM8.48412 2.29169C8.36464 2.29169 8.33169 2.29197 8.3048 2.2936C7.90312 2.31792 7.55138 2.57144 7.40128 2.94482C7.39124 2.96981 7.38055 3.00098 7.34277 3.11433L7.33739 3.13049C7.30749 3.22023 7.28422 3.29007 7.25819 3.35481C6.92797 4.17624 6.15414 4.73398 5.27045 4.7875C5.20076 4.79172 5.12345 4.79171 5.02316 4.79169C5.01703 4.79169 5.01081 4.79169 5.0045 4.79169C4.68083 4.79169 4.56589 4.79248 4.48164 4.80083C3.5923 4.88894 2.88876 5.59248 2.80065 6.48182C2.79228 6.56628 2.79151 6.67415 2.79151 6.98104V13.5C2.79151 14.2104 2.792 14.7056 2.82349 15.0911C2.8544 15.4694 2.91201 15.6867 2.99587 15.8513C3.17564 16.2041 3.46247 16.4909 3.81528 16.6707C3.97987 16.7545 4.19718 16.8121 4.57541 16.843C4.96094 16.8745 5.45613 16.875 6.16651 16.875H14.8332C15.5436 16.875 16.0388 16.8745 16.4243 16.843C16.8025 16.8121 17.0198 16.7545 17.1844 16.6707C17.5372 16.4909 17.8241 16.2041 18.0038 15.8513C18.0877 15.6867 18.1453 15.4694 18.1762 15.0911C18.2077 14.7056 18.2082 14.2104 18.2082 13.5V6.98104C18.2082 6.67415 18.2074 6.56628 18.199 6.48182C18.1109 5.59248 17.4074 4.88894 16.518 4.80083C16.4338 4.79248 16.3189 4.79169 15.9952 4.79169L15.9765 4.79169C15.8762 4.79171 15.7989 4.79172 15.7292 4.7875C14.8455 4.73398 14.0717 4.17624 13.7415 3.35481C13.7155 3.29007 13.6922 3.22022 13.6623 3.13047L13.6569 3.11433C13.6191 3.00098 13.6084 2.96981 13.5984 2.94482C13.4483 2.57144 13.0966 2.31792 12.6949 2.2936C12.668 2.29197 12.635 2.29169 12.5156 2.29169H8.48412ZM10.4998 7.70836C9.00407 7.70836 7.79151 8.92092 7.79151 10.4167C7.79151 11.9125 9.00407 13.125 10.4998 13.125C11.9956 13.125 13.2082 11.9125 13.2082 10.4167C13.2082 8.92092 11.9956 7.70836 10.4998 7.70836ZM6.54151 10.4167C6.54151 8.23056 8.31372 6.45836 10.4998 6.45836C12.686 6.45836 14.4582 8.23056 14.4582 10.4167C14.4582 12.6028 12.686 14.375 10.4998 14.375C8.31372 14.375 6.54151 12.6028 6.54151 10.4167Z" fill="white"/>
</svg>
