<svg width="12" height="11" viewBox="0 0 12 11" fill="none" xmlns="http://www.w3.org/2000/svg">
<path fill-rule="evenodd" clip-rule="evenodd" d="M3.125 1C3.125 0.792893 3.29289 0.625 3.5 0.625H4C4.20711 0.625 4.375 0.792893 4.375 1C4.375 1.20711 4.20711 1.375 4 1.375H3.5C3.29289 1.375 3.125 1.20711 3.125 1ZM5.99487 2.125H1C0.792893 2.125 0.625 2.29289 0.625 2.5C0.625 2.70711 0.792893 2.875 1 2.875H5.29931L4.70858 3.76109L3.75 4.71967L2.76517 3.73483C2.61872 3.58839 2.38128 3.58839 2.23483 3.73483C2.08839 3.88128 2.08839 4.11872 2.23483 4.26517L3.21967 5.25L1.73483 6.73484C1.58839 6.88128 1.58839 7.11872 1.73483 7.26516C1.88128 7.41161 2.11872 7.41161 2.26517 7.26516L3.75 5.78033L4.73483 6.76516C4.88128 6.91161 5.11872 6.91161 5.26516 6.76516C5.41161 6.61872 5.41161 6.38128 5.26516 6.23484L4.28033 5.25L5.26516 4.26517C5.28263 4.2477 5.29832 4.22856 5.31202 4.20801L6.20069 2.875H7C7.20711 2.875 7.375 2.70711 7.375 2.5C7.375 2.29289 7.20711 2.125 7 2.125H6.00581C6.00217 2.12495 5.99852 2.12495 5.99487 2.125ZM7.97822 4.76662C8.14992 4.6837 8.35008 4.6837 8.52178 4.76662C8.66608 4.8363 8.74751 4.95934 8.7934 5.03648C8.84097 5.11646 8.8906 5.22025 8.94274 5.32931L11.3383 10.3382C11.4277 10.525 11.3486 10.7489 11.1618 10.8383C10.975 10.9277 10.7511 10.8486 10.6617 10.6618L9.80715 8.875H6.69285L5.8383 10.6618C5.74894 10.8486 5.52504 10.9277 5.3382 10.8383C5.15137 10.7489 5.07234 10.525 5.1617 10.3382L7.55725 5.32933C7.6094 5.22026 7.65902 5.11646 7.7066 5.03648C7.75249 4.95934 7.83392 4.8363 7.97822 4.76662ZM7.05155 8.125H9.44845L8.27255 5.66631C8.26461 5.64969 8.2571 5.63402 8.25 5.61922C8.2429 5.63402 8.23539 5.64969 8.22745 5.66631L7.05155 8.125Z" fill="white"/>
</svg>
