<svg width="11" height="10" viewBox="0 0 11 10" fill="none" xmlns="http://www.w3.org/2000/svg">
<path fill-rule="evenodd" clip-rule="evenodd" d="M2.88398 0.625H8.11608C8.5225 0.624996 8.85031 0.624993 9.11577 0.646682C9.38908 0.669013 9.62916 0.716193 9.85126 0.829363C10.2041 1.00913 10.4909 1.29596 10.6707 1.64877C10.782 1.86728 10.8295 2.10317 10.8522 2.37101C10.8777 2.4403 10.8815 2.5145 10.8654 2.58433C10.875 2.80998 10.875 3.07412 10.875 3.38394V6.61606C10.875 7.02248 10.875 7.35028 10.8534 7.61573C10.831 7.88905 10.7838 8.12912 10.6707 8.35123C10.4909 8.70404 10.2041 8.99088 9.85126 9.17064C9.62916 9.28381 9.38908 9.33099 9.11577 9.35332C8.85031 9.37501 8.52251 9.375 8.11609 9.375H2.88397C2.47756 9.375 2.14975 9.37501 1.8843 9.35332C1.61098 9.33099 1.37091 9.28381 1.1488 9.17064C0.795996 8.99088 0.509158 8.70404 0.329395 8.35123C0.216225 8.12912 0.169045 7.88905 0.146714 7.61573C0.125025 7.35028 0.125028 7.02247 0.125032 6.61605V3.38395C0.125029 3.07413 0.125027 2.80999 0.134634 2.58433C0.118543 2.51451 0.12239 2.44029 0.14782 2.371C0.170592 2.10317 0.218059 1.86728 0.329395 1.64877C0.509158 1.29596 0.795996 1.00913 1.1488 0.829363C1.37091 0.716193 1.61098 0.669013 1.8843 0.646682C2.14975 0.624993 2.47756 0.624996 2.88398 0.625ZM0.875109 3.2203C0.875039 3.27755 0.875032 3.33738 0.875032 3.4V6.6C0.875032 6.92301 0.8752 7.17187 0.883506 7.37414L3.47076 5.03725L0.875109 3.2203ZM4.27981 4.6881L0.906431 2.32673C0.926373 2.17032 0.956827 2.06938 0.99765 1.98926C1.10551 1.77758 1.27761 1.60548 1.48929 1.49762C1.58805 1.4473 1.71843 1.41273 1.94537 1.39419C2.17669 1.37529 2.4738 1.375 2.90003 1.375H8.10003C8.52626 1.375 8.82338 1.37529 9.05469 1.39419C9.28163 1.41273 9.41201 1.4473 9.51077 1.49762C9.72245 1.60548 9.89456 1.77758 10.0024 1.98926C10.0432 2.06938 10.0737 2.17032 10.0936 2.32673L6.72027 4.68809C6.71592 4.691 6.71163 4.694 6.70739 4.6971L6.20252 5.05051C5.84653 5.29971 5.74729 5.36184 5.6512 5.38579C5.55194 5.41053 5.44812 5.41053 5.34886 5.38579C5.25278 5.36184 5.15354 5.29971 4.79754 5.05051L4.29266 4.69709C4.28843 4.694 4.28414 4.691 4.27981 4.6881ZM4.10114 5.47852L1.10642 8.18344C1.20808 8.31636 1.33867 8.42563 1.48929 8.50238C1.58805 8.5527 1.71843 8.58727 1.94537 8.60581C2.17669 8.62471 2.4738 8.625 2.90003 8.625H8.10003C8.52626 8.625 8.82338 8.62471 9.05469 8.60581C9.28163 8.58727 9.41201 8.5527 9.51077 8.50238C9.6614 8.42563 9.79199 8.31636 9.89364 8.18344L6.89893 5.47852L6.63262 5.66493C6.61563 5.67683 6.59886 5.68859 6.58231 5.7002C6.30158 5.89709 6.08143 6.0515 5.8326 6.11352C5.61423 6.16795 5.38584 6.16795 5.16746 6.11352C4.91864 6.0515 4.69848 5.89709 4.41776 5.7002C4.4012 5.68859 4.38444 5.67683 4.36744 5.66493L4.10114 5.47852ZM7.52931 5.03725L10.1166 7.37414C10.1249 7.17187 10.125 6.92301 10.125 6.6V3.4C10.125 3.33738 10.125 3.27755 10.125 3.2203L7.52931 5.03725Z" fill="#1881DC"/>
</svg>
