<svg width="12" height="12" viewBox="0 0 12 12" fill="none" xmlns="http://www.w3.org/2000/svg">
<path fill-rule="evenodd" clip-rule="evenodd" d="M1.375 3.43198L1.375 4.49893C1.37638 4.50595 1.38756 4.54211 1.46058 4.60489C1.55299 4.68434 1.70865 4.77288 1.93361 4.85468C2.38044 5.01717 3.02258 5.125 3.75 5.125C4.37783 5.125 4.94425 5.04463 5.3766 4.9169C5.40706 4.88464 5.43899 4.85446 5.47164 4.8264C5.49124 4.80954 5.51153 4.79305 5.53246 4.77692C5.53664 4.7737 5.54082 4.7705 5.54501 4.76734C5.56977 4.74865 5.59544 4.73041 5.62198 4.71261C5.65236 4.69224 5.6838 4.67249 5.71619 4.65337C5.79799 4.60507 5.88585 4.56074 5.97814 4.52013C6.01978 4.50181 6.06233 4.48424 6.10562 4.46742C6.11206 4.46492 6.11852 4.46242 6.125 4.45995V3.43198C6.02941 3.47883 5.92797 3.52125 5.8227 3.55953C5.27422 3.75897 4.54136 3.875 3.75 3.875C2.95864 3.875 2.22578 3.75897 1.6773 3.55953C1.57203 3.52125 1.47059 3.47883 1.375 3.43198ZM6.875 2.5V4.25113C7.2908 4.16964 7.75915 4.125 8.25 4.125C9.04136 4.125 9.77422 4.24103 10.3227 4.44047C10.5954 4.53963 10.8425 4.66657 11.0284 4.8264C11.213 4.98518 11.375 5.21152 11.375 5.5V9.5C11.375 9.78848 11.213 10.0148 11.0284 10.1736C10.8425 10.3334 10.5954 10.4604 10.3227 10.5595C9.77422 10.759 9.04136 10.875 8.25 10.875C7.45864 10.875 6.72578 10.759 6.1773 10.5595C5.90461 10.4604 5.65754 10.3334 5.47164 10.1736C5.34194 10.0621 5.22345 9.91727 5.16439 9.741C4.73983 9.82729 4.25756 9.875 3.75 9.875C2.95864 9.875 2.22578 9.75898 1.6773 9.55953C1.40461 9.46037 1.15754 9.33343 0.971638 9.1736C0.786952 9.01482 0.625 8.78849 0.625 8.5V2.5C0.625 2.21152 0.786952 1.98518 0.971638 1.8264C1.15754 1.66657 1.40461 1.53963 1.6773 1.44047C2.22578 1.24103 2.95864 1.125 3.75 1.125C4.54136 1.125 5.27422 1.24103 5.8227 1.44047C6.09539 1.53963 6.34246 1.66657 6.52836 1.8264C6.71305 1.98518 6.875 2.21152 6.875 2.5ZM1.375 5.43198L1.375 6.49893C1.37638 6.50595 1.38756 6.54211 1.46058 6.60489C1.55299 6.68434 1.70865 6.77288 1.93361 6.85468C2.38044 7.01717 3.02258 7.125 3.75 7.125C4.26241 7.125 4.73391 7.07147 5.125 6.98234V5.74887C4.7101 5.83018 4.24192 5.875 3.75 5.875C2.95864 5.875 2.22578 5.75898 1.6773 5.55953C1.57203 5.52125 1.47059 5.47883 1.375 5.43198ZM5.875 6.43198V7.263C5.87513 7.26873 5.87513 7.27444 5.875 7.28014L5.875 7.49892C5.87638 7.50595 5.88756 7.54211 5.96058 7.60489C6.05299 7.68434 6.20865 7.77288 6.43361 7.85468C6.88044 8.01717 7.52258 8.125 8.25 8.125C8.97742 8.125 9.61956 8.01717 10.0664 7.85468C10.2913 7.77288 10.447 7.68434 10.5394 7.60489C10.6124 7.54211 10.6236 7.50595 10.625 7.49893V6.43198C10.5294 6.47883 10.428 6.52125 10.3227 6.55953C9.77422 6.75898 9.04136 6.875 8.25 6.875C7.45864 6.875 6.72578 6.75898 6.1773 6.55953C6.07203 6.52125 5.97059 6.47883 5.875 6.43198ZM10.625 5.49876C10.6251 5.49803 10.6251 5.49766 10.6252 5.49766L10.625 5.49876ZM10.6248 5.5C10.6225 5.50912 10.6093 5.54482 10.5394 5.60489C10.447 5.68434 10.2913 5.77288 10.0664 5.85468C9.61956 6.01717 8.97742 6.125 8.25 6.125C7.52258 6.125 6.88044 6.01717 6.43361 5.85468C6.20865 5.77288 6.05299 5.68434 5.96058 5.60489C5.89133 5.54535 5.8777 5.50975 5.8753 5.50025C5.87652 5.49539 5.88102 5.48212 5.8965 5.46119C5.90917 5.44423 5.92914 5.42214 5.96058 5.39511C5.96971 5.38726 5.97945 5.37933 5.98982 5.37132C5.99214 5.36953 5.99451 5.36772 5.99693 5.3659C6.01577 5.35167 6.0364 5.33734 6.05881 5.32297C6.15066 5.2641 6.27489 5.20303 6.43361 5.14532C6.48597 5.12627 6.54102 5.10798 6.59857 5.09053C6.60166 5.08959 6.60475 5.08866 6.60786 5.08773M10.6248 5.5C10.6225 5.49087 10.6093 5.45518 10.5394 5.39511C10.447 5.31566 10.2913 5.22712 10.0664 5.14532C9.61956 4.98283 8.97742 4.875 8.25 4.875C7.61309 4.875 7.04155 4.95767 6.60926 5.08731M10.625 8.43198C10.5294 8.47883 10.428 8.52125 10.3227 8.55953C9.77422 8.75898 9.04136 8.875 8.25 8.875C7.45864 8.875 6.72578 8.75898 6.1773 8.55953C6.07203 8.52125 5.97059 8.47883 5.875 8.43198V9.49892C5.87638 9.50594 5.88755 9.5421 5.96058 9.60489C6.05299 9.68434 6.20865 9.77288 6.43361 9.85468C6.88044 10.0172 7.52258 10.125 8.25 10.125C8.97742 10.125 9.61956 10.0172 10.0664 9.85468C10.2913 9.77288 10.447 9.68434 10.5394 9.60489C10.6124 9.54211 10.6236 9.50594 10.625 9.49893V8.43198ZM10.6252 9.49766C10.6252 9.49766 10.6251 9.49819 10.625 9.49893L10.6252 9.49766ZM5.87484 9.49766C5.87486 9.49766 5.87496 9.49819 5.875 9.49892L5.87484 9.49766ZM5.125 7.74887V8.98234C4.73391 9.07147 4.26241 9.125 3.75 9.125C3.02258 9.125 2.38044 9.01717 1.93361 8.85468C1.70865 8.77288 1.55299 8.68434 1.46058 8.60489C1.38756 8.54211 1.37638 8.50595 1.375 8.49893V7.43198C1.47059 7.47883 1.57203 7.52125 1.6773 7.55953C2.22578 7.75898 2.95864 7.875 3.75 7.875C4.24192 7.875 4.7101 7.83019 5.125 7.74887ZM1.37484 8.49766C1.37486 8.49766 1.37496 8.49819 1.375 8.49893L1.37484 8.49766ZM6.12516 2.49766C6.12519 2.49766 6.12517 2.49803 6.12503 2.49876L6.12516 2.49766ZM6.12476 2.5C6.12254 2.50912 6.10929 2.54482 6.03942 2.60489C5.94701 2.68434 5.79135 2.77288 5.56639 2.85468C5.11956 3.01717 4.47742 3.125 3.75 3.125C3.02258 3.125 2.38044 3.01717 1.93361 2.85468C1.70865 2.77288 1.55299 2.68434 1.46058 2.60489C1.39072 2.54482 1.37746 2.50912 1.37524 2.5C1.37746 2.49088 1.39072 2.45518 1.46058 2.39511C1.55299 2.31566 1.70865 2.22712 1.93361 2.14532C2.38044 1.98283 3.02258 1.875 3.75 1.875C4.47742 1.875 5.11956 1.98283 5.56639 2.14532C5.79135 2.22712 5.94701 2.31566 6.03942 2.39511C6.10928 2.45518 6.12254 2.49088 6.12476 2.5ZM1.37484 2.49766C1.37486 2.49766 1.37493 2.49803 1.37497 2.49876L1.37484 2.49766Z" fill="#231F20"/>
</svg>
