<svg width="21" height="21" viewBox="0 0 21 21" fill="none" xmlns="http://www.w3.org/2000/svg">
<path fill-rule="evenodd" clip-rule="evenodd" d="M10.5 2.79166C6.24279 2.79166 2.79166 6.2428 2.79166 10.5C2.79166 14.7572 6.24279 18.2083 10.5 18.2083C14.7572 18.2083 18.2083 14.7572 18.2083 10.5C18.2083 6.2428 14.7572 2.79166 10.5 2.79166ZM1.54166 10.5C1.54166 5.55245 5.55244 1.54166 10.5 1.54166C15.4475 1.54166 19.4583 5.55245 19.4583 10.5C19.4583 15.4475 15.4475 19.4583 10.5 19.4583C5.55244 19.4583 1.54166 15.4475 1.54166 10.5ZM9.76191 6.87179L13.7341 9.42537C13.8631 9.50825 13.9931 9.59179 14.0949 9.67117C14.2018 9.75452 14.3516 9.88769 14.439 10.0946C14.5485 10.3538 14.5485 10.6462 14.439 10.9054C14.3516 11.1123 14.2018 11.2455 14.0949 11.3288C13.9931 11.4082 13.8631 11.4917 13.7341 11.5746L9.76192 14.1282C9.61197 14.2246 9.46551 14.3188 9.33871 14.3848C9.21116 14.4512 9.00639 14.5435 8.75911 14.5258C8.45772 14.5043 8.18054 14.353 7.99945 14.1111C7.85088 13.9126 7.81779 13.6905 7.80466 13.5473C7.7916 13.4049 7.79163 13.2308 7.79165 13.0525L7.79166 7.97111C7.79166 7.96322 7.79166 7.95534 7.79165 7.94747C7.79163 7.76919 7.7916 7.59507 7.80466 7.45271C7.81779 7.30952 7.85088 7.08736 7.99945 6.88891C8.18054 6.64703 8.45773 6.4957 8.75911 6.47417C9.00639 6.45651 9.21116 6.54881 9.3387 6.61519C9.46551 6.68119 9.61197 6.77537 9.76191 6.87179ZM9.04168 7.89484C9.04166 7.91897 9.04166 7.94435 9.04166 7.97111V13.0289C9.04166 13.0556 9.04166 13.081 9.04168 13.1052C9.062 13.0921 9.08334 13.0784 9.10586 13.0639L13.0397 10.535C13.0588 10.5227 13.077 10.5111 13.0942 10.5C13.077 10.4889 13.0588 10.4773 13.0397 10.4649L9.10585 7.93606C9.08334 7.92159 9.062 7.90787 9.04168 7.89484Z" fill="#231F20"/>
</svg>
