<svg width="12" height="12" viewBox="0 0 12 12" fill="none" xmlns="http://www.w3.org/2000/svg">
<path fill-rule="evenodd" clip-rule="evenodd" d="M4.81164 1.1301C5.01593 1.16415 5.15394 1.35736 5.11989 1.56165L4.776 3.625H8.01564L8.38008 1.43835C8.41413 1.23406 8.60734 1.09605 8.81163 1.1301C9.01592 1.16415 9.15393 1.35736 9.11988 1.56165L8.77599 3.625H10.25C10.4571 3.625 10.625 3.79289 10.625 4C10.625 4.2071 10.4571 4.375 10.25 4.375H8.65099L8.10932 7.625H9.75C9.95711 7.625 10.125 7.79289 10.125 8C10.125 8.2071 9.95711 8.375 9.75 8.375H7.98432L7.61988 10.5616C7.58583 10.7659 7.39262 10.9039 7.18833 10.8699C6.98404 10.8358 6.84604 10.6426 6.88008 10.4383L7.22398 8.375H3.98433L3.61989 10.5616C3.58584 10.7659 3.39263 10.9039 3.18834 10.8699C2.98405 10.8358 2.84605 10.6426 2.8801 10.4383L3.22399 8.375H1.25C1.04289 8.375 0.875 8.2071 0.875 8C0.875 7.79289 1.04289 7.625 1.25 7.625H3.34899L3.89065 4.375H1.75C1.54289 4.375 1.375 4.2071 1.375 4C1.375 3.79289 1.54289 3.625 1.75 3.625H4.01565L4.3801 1.43835C4.41414 1.23406 4.60735 1.09605 4.81164 1.1301ZM4.651 4.375L4.10933 7.625H7.34898L7.89064 4.375H4.651Z" fill="white"/>
</svg>
