<svg width="13" height="12" viewBox="0 0 13 12" fill="none" xmlns="http://www.w3.org/2000/svg">
<path fill-rule="evenodd" clip-rule="evenodd" d="M6.18577 0.604069C6.39243 0.555561 6.60752 0.555561 6.81418 0.604069C7.04948 0.6593 7.26014 0.796488 7.52853 0.971269C7.54426 0.981511 7.56018 0.991882 7.57632 1.00237L10.6861 3.02372C10.695 3.02954 10.7039 3.03532 10.7128 3.04105L11.3403 3.44898C11.3491 3.45466 11.3579 3.46036 11.3667 3.46609C11.4726 3.53456 11.5857 3.60773 11.6714 3.71027C11.746 3.79959 11.8021 3.90291 11.8363 4.01416C11.8756 4.14189 11.8753 4.27662 11.875 4.40269C11.875 4.41324 11.875 4.42373 11.875 4.43415V8.11606C11.875 8.52248 11.875 8.85028 11.8533 9.11574C11.831 9.38905 11.7838 9.62912 11.6706 9.85123C11.4908 10.204 11.204 10.4909 10.8512 10.6706C10.6291 10.7838 10.389 10.831 10.1157 10.8533C9.85025 10.875 9.52245 10.875 9.11603 10.875H3.88391C3.4775 10.875 3.14969 10.875 2.88424 10.8533C2.61092 10.831 2.37085 10.7838 2.14874 10.6706C1.79594 10.4909 1.5091 10.204 1.32934 9.85123C1.21616 9.62912 1.16899 9.38905 1.14665 9.11574C1.12497 8.85028 1.12497 8.52247 1.12497 8.11605L1.12497 4.43415C1.12497 4.42373 1.12495 4.41324 1.12493 4.40269C1.12465 4.27662 1.12435 4.14189 1.16362 4.01416C1.19783 3.90291 1.2539 3.79959 1.32854 3.71027C1.41423 3.60773 1.52735 3.53456 1.63321 3.46609C1.64207 3.46036 1.65087 3.45466 1.65961 3.44898L2.28688 3.04125C2.29581 3.03545 2.3048 3.02961 2.31385 3.02372C2.3184 3.02077 2.32296 3.0178 2.32753 3.01483L5.42362 1.00237C5.43976 0.991883 5.45569 0.981512 5.47141 0.971269C5.7398 0.796489 5.95047 0.6593 6.18577 0.604069ZM5.83236 1.63121L2.73627 3.64366C2.55824 3.75939 2.44644 3.83249 2.36962 3.89302C2.32223 3.93036 2.30492 3.95045 2.30032 3.95628C2.28979 3.98448 2.28979 4.01553 2.30032 4.04372C2.30492 4.04956 2.32223 4.06965 2.36962 4.10698C2.44644 4.16751 2.55824 4.24062 2.73627 4.35634L5.83236 6.3688C6.17203 6.58958 6.26617 6.64442 6.35715 6.66578C6.45109 6.68783 6.54886 6.68783 6.64279 6.66578C6.73377 6.64442 6.82792 6.58958 7.16758 6.3688L10.2637 4.35634C10.4417 4.24062 10.5535 4.16751 10.6303 4.10698C10.6777 4.06965 10.695 4.04956 10.6996 4.04372C10.7102 4.01553 10.7102 3.98448 10.6996 3.95629C10.695 3.95045 10.6777 3.93036 10.6303 3.89302C10.5535 3.83249 10.4417 3.75939 10.2637 3.64366L7.16758 1.63121C6.82792 1.41042 6.73378 1.35558 6.64279 1.33422C6.54886 1.31218 6.45109 1.31218 6.35715 1.33422C6.26617 1.35558 6.17203 1.41042 5.83236 1.63121ZM11.125 4.67155C11.1148 4.67996 11.1046 4.68813 11.0945 4.69611C10.9875 4.7804 10.8463 4.87214 10.6861 4.97628L8.42688 6.44477L11.1165 8.87412C11.1248 8.67186 11.125 8.423 11.125 8.1V4.67155ZM10.8936 9.68343L7.7762 6.86771L7.57632 6.99763C7.56019 7.00812 7.54426 7.01849 7.52854 7.02873C7.26015 7.20351 7.04948 7.3407 6.81418 7.39593C6.60752 7.44444 6.39243 7.44444 6.18577 7.39593C5.95047 7.3407 5.7398 7.20351 5.47141 7.02873C5.45568 7.01849 5.43976 7.00812 5.42362 6.99763L5.22374 6.86771L2.10635 9.68343C2.20801 9.81635 2.3386 9.92563 2.48923 10.0024C2.58799 10.0527 2.71837 10.0873 2.94531 10.1058C3.17663 10.1247 3.47375 10.125 3.89997 10.125H9.09997C9.5262 10.125 9.82332 10.1247 10.0546 10.1058C10.2816 10.0873 10.412 10.0527 10.5107 10.0024C10.6613 9.92563 10.7919 9.81635 10.8936 9.68343ZM1.88345 8.87412L4.57307 6.44477L2.31385 4.97628C2.15361 4.87214 2.01246 4.7804 1.90547 4.69611C1.89535 4.68813 1.88517 4.67996 1.87497 4.67155V8.1C1.87497 8.423 1.87514 8.67186 1.88345 8.87412ZM1.88072 4.23377C1.88072 4.23378 1.88067 4.23402 1.88054 4.23444L1.88072 4.23377Z" fill="#515B70"/>
</svg>
