<svg width="13" height="12" viewBox="0 0 13 12" fill="none" xmlns="http://www.w3.org/2000/svg">
<path fill-rule="evenodd" clip-rule="evenodd" d="M3.88398 1.625H9.11608C9.5225 1.625 9.85031 1.62499 10.1158 1.64668C10.3891 1.66901 10.6292 1.71619 10.8513 1.82936C11.2041 2.00913 11.4909 2.29596 11.6707 2.64877C11.782 2.86728 11.8295 3.10317 11.8522 3.37101C11.8777 3.4403 11.8815 3.5145 11.8654 3.58433C11.875 3.80998 11.875 4.07412 11.875 4.38394V7.61606C11.875 8.02248 11.875 8.35028 11.8534 8.61573C11.831 8.88905 11.7838 9.12912 11.6707 9.35123C11.4909 9.70404 11.2041 9.99088 10.8513 10.1706C10.6292 10.2838 10.3891 10.331 10.1158 10.3533C9.85031 10.375 9.52251 10.375 9.11609 10.375H3.88397C3.47756 10.375 3.14975 10.375 2.8843 10.3533C2.61098 10.331 2.37091 10.2838 2.1488 10.1706C1.796 9.99088 1.50916 9.70404 1.32939 9.35123C1.21622 9.12912 1.16904 8.88905 1.14671 8.61573C1.12503 8.35028 1.12503 8.02247 1.12503 7.61605V4.38395C1.12503 4.07413 1.12503 3.80999 1.13463 3.58433C1.11854 3.51451 1.12239 3.44029 1.14782 3.371C1.17059 3.10317 1.21806 2.86728 1.32939 2.64877C1.50916 2.29596 1.796 2.00913 2.1488 1.82936C2.37091 1.71619 2.61098 1.66901 2.8843 1.64668C3.14975 1.62499 3.47756 1.625 3.88398 1.625ZM1.87511 4.2203C1.87504 4.27755 1.87503 4.33738 1.87503 4.4V7.6C1.87503 7.92301 1.8752 8.17187 1.88351 8.37414L4.47076 6.03725L1.87511 4.2203ZM5.27981 5.6881L1.90643 3.32673C1.92637 3.17032 1.95683 3.06938 1.99765 2.98926C2.10551 2.77758 2.27761 2.60548 2.48929 2.49762C2.58805 2.4473 2.71843 2.41273 2.94537 2.39419C3.17669 2.37529 3.4738 2.375 3.90003 2.375H9.10003C9.52626 2.375 9.82338 2.37529 10.0547 2.39419C10.2816 2.41273 10.412 2.4473 10.5108 2.49762C10.7225 2.60548 10.8946 2.77758 11.0024 2.98926C11.0432 3.06938 11.0737 3.17032 11.0936 3.32673L7.72027 5.68809C7.71592 5.691 7.71163 5.694 7.70739 5.6971L7.20252 6.05051C6.84653 6.29971 6.74729 6.36184 6.6512 6.38579C6.55194 6.41053 6.44812 6.41053 6.34886 6.38579C6.25278 6.36184 6.15354 6.29971 5.79754 6.05051L5.29266 5.69709C5.28843 5.694 5.28414 5.691 5.27981 5.6881ZM5.10114 6.47852L2.10642 9.18344C2.20808 9.31636 2.33867 9.42563 2.48929 9.50238C2.58805 9.5527 2.71843 9.58727 2.94537 9.60581C3.17669 9.62471 3.4738 9.625 3.90003 9.625H9.10003C9.52626 9.625 9.82338 9.62471 10.0547 9.60581C10.2816 9.58727 10.412 9.5527 10.5108 9.50238C10.6614 9.42563 10.792 9.31636 10.8936 9.18344L7.89893 6.47852L7.63262 6.66493C7.61563 6.67683 7.59886 6.68859 7.58231 6.7002C7.30158 6.89709 7.08143 7.0515 6.8326 7.11352C6.61423 7.16795 6.38584 7.16795 6.16746 7.11352C5.91864 7.0515 5.69848 6.89709 5.41776 6.7002C5.4012 6.68859 5.38444 6.67683 5.36744 6.66493L5.10114 6.47852ZM8.52931 6.03725L11.1166 8.37414C11.1249 8.17187 11.125 7.92301 11.125 7.6V4.4C11.125 4.33738 11.125 4.27755 11.125 4.2203L8.52931 6.03725Z" fill="#1881DC"/>
</svg>
