<svg width="21" height="21" viewBox="0 0 21 21" fill="none" xmlns="http://www.w3.org/2000/svg">
<path fill-rule="evenodd" clip-rule="evenodd" d="M7.30658 2.375H14.3601C15.0375 2.37499 15.5838 2.37499 16.0262 2.41114C16.4818 2.44835 16.8819 2.52699 17.2521 2.7156C17.8401 3.01521 18.3181 3.49327 18.6177 4.08128C18.8063 4.45146 18.885 4.85158 18.9222 5.30711C18.9583 5.74953 18.9583 6.29587 18.9583 6.97323V11.5268C18.9583 12.2041 18.9583 12.7505 18.9222 13.1929C18.885 13.6484 18.8063 14.0485 18.6177 14.4187C18.3181 15.0067 17.8401 15.4848 17.2521 15.7844C16.8819 15.973 16.4818 16.0516 16.0262 16.0889C15.5838 16.125 15.0375 16.125 14.3601 16.125H12.2365C11.6914 16.125 11.5055 16.1279 11.3333 16.1633C11.1678 16.1972 11.0077 16.2534 10.8572 16.3303C10.7007 16.4102 10.5537 16.5241 10.1281 16.8646L8.12095 18.4703C7.96434 18.5956 7.81516 18.715 7.68616 18.8003C7.56154 18.8827 7.35081 19.0078 7.08446 19.0081C6.76723 19.0084 6.46713 18.8642 6.26922 18.6163C6.10306 18.4081 6.06912 18.1654 6.05561 18.0166C6.04162 17.8626 6.04164 17.6715 6.04166 17.471L6.04166 16.1228C5.6314 16.1168 5.31089 16.0953 5.02452 16.0185C3.94611 15.7296 3.10377 14.8872 2.81481 13.8088C2.70793 13.4099 2.70809 12.9448 2.70831 12.2632C2.70832 12.2315 2.70833 12.1993 2.70833 12.1667L2.70833 6.97325C2.70832 6.29588 2.70832 5.74953 2.74447 5.30711C2.78169 4.85158 2.86032 4.45146 3.04894 4.08128C3.34854 3.49327 3.8266 3.01521 4.41461 2.7156C4.78479 2.52699 5.18491 2.44835 5.64044 2.41114C6.08287 2.37499 6.62921 2.37499 7.30658 2.375ZM5.74223 3.65699C5.364 3.68789 5.1467 3.7455 4.9821 3.82936C4.6293 4.00913 4.34246 4.29596 4.16269 4.64877C4.07883 4.81337 4.02122 5.03067 3.99032 5.4089C3.95882 5.79443 3.95833 6.28962 3.95833 7V12.1667C3.95833 12.9819 3.9637 13.2669 4.02222 13.4853C4.1956 14.1323 4.701 14.6377 5.34805 14.8111C5.56645 14.8696 5.85145 14.875 6.66666 14.875C7.01184 14.875 7.29167 15.1548 7.29167 15.5V17.4462C7.29167 17.4768 7.29168 17.5056 7.29171 17.5328C7.31299 17.5159 7.3355 17.4979 7.35936 17.4788L9.34724 15.8885C9.36313 15.8758 9.37881 15.8632 9.39428 15.8508C9.75515 15.562 10.005 15.362 10.2886 15.2171C10.5393 15.089 10.8062 14.9954 11.082 14.9388C11.3939 14.8748 11.714 14.8749 12.1762 14.875C12.196 14.875 12.2161 14.875 12.2365 14.875H14.3333C15.0437 14.875 15.5389 14.8745 15.9244 14.843C16.3027 14.8121 16.52 14.7545 16.6846 14.6706C17.0374 14.4909 17.3242 14.204 17.504 13.8512C17.5878 13.6866 17.6454 13.4693 17.6763 13.0911C17.7078 12.7056 17.7083 12.2104 17.7083 11.5V7C17.7083 6.28962 17.7078 5.79443 17.6763 5.4089C17.6454 5.03067 17.5878 4.81337 17.504 4.64877C17.3242 4.29596 17.0374 4.00913 16.6846 3.82936C16.52 3.7455 16.3027 3.68789 15.9244 3.65699C15.5389 3.62549 15.0437 3.625 14.3333 3.625H7.33333C6.62295 3.625 6.12776 3.62549 5.74223 3.65699ZM6.04166 7.58333C6.04166 7.23816 6.32149 6.95833 6.66666 6.95833H10.8333C11.1785 6.95833 11.4583 7.23816 11.4583 7.58333C11.4583 7.92851 11.1785 8.20833 10.8333 8.20833H6.66666C6.32149 8.20833 6.04166 7.92851 6.04166 7.58333ZM6.04166 10.5C6.04166 10.1548 6.32149 9.875 6.66666 9.875H13.3333C13.6785 9.875 13.9583 10.1548 13.9583 10.5C13.9583 10.8452 13.6785 11.125 13.3333 11.125H6.66666C6.32149 11.125 6.04166 10.8452 6.04166 10.5Z" fill="#231F20"/>
</svg>
