<svg width="21" height="20" viewBox="0 0 21 20" fill="none" xmlns="http://www.w3.org/2000/svg">
<rect x="0.5" width="20" height="20" rx="10" fill="#DBE0EB"/>
<path fill-rule="evenodd" clip-rule="evenodd" d="M10.1858 4.60407C10.3924 4.55556 10.6075 4.55556 10.8142 4.60407C11.0495 4.6593 11.2601 4.79649 11.5285 4.97127C11.5443 4.98151 11.5602 4.99188 11.5763 5.00237L14.6861 7.02372C14.695 7.02954 14.7039 7.03532 14.7128 7.04105L15.3403 7.44898C15.3491 7.45466 15.3579 7.46036 15.3667 7.46609C15.4726 7.53456 15.5857 7.60773 15.6714 7.71027C15.746 7.79959 15.8021 7.90291 15.8363 8.01416C15.8756 8.14189 15.8753 8.27662 15.875 8.40269C15.875 8.41324 15.875 8.42373 15.875 8.43415V12.1161C15.875 12.5225 15.875 12.8503 15.8533 13.1157C15.831 13.3891 15.7838 13.6291 15.6706 13.8512C15.4908 14.204 15.204 14.4909 14.8512 14.6706C14.6291 14.7838 14.389 14.831 14.1157 14.8533C13.8503 14.875 13.5224 14.875 13.116 14.875H7.88391C7.4775 14.875 7.14969 14.875 6.88424 14.8533C6.61092 14.831 6.37085 14.7838 6.14874 14.6706C5.79594 14.4909 5.5091 14.204 5.32934 13.8512C5.21616 13.6291 5.16899 13.3891 5.14665 13.1157C5.12497 12.8503 5.12497 12.5225 5.12497 12.1161L5.12497 8.43415C5.12497 8.42373 5.12495 8.41324 5.12493 8.40269C5.12465 8.27662 5.12435 8.14189 5.16362 8.01416C5.19783 7.90291 5.2539 7.79959 5.32854 7.71027C5.41423 7.60773 5.52735 7.53456 5.63321 7.46609C5.64207 7.46036 5.65087 7.45466 5.65961 7.44898L6.28688 7.04125C6.29581 7.03545 6.3048 7.02961 6.31385 7.02372C6.3184 7.02077 6.32296 7.0178 6.32753 7.01483L9.42362 5.00237C9.43976 4.99188 9.45569 4.98151 9.47141 4.97127C9.7398 4.79649 9.95047 4.6593 10.1858 4.60407ZM9.83236 5.63121L6.73627 7.64366C6.55824 7.75939 6.44644 7.83249 6.36962 7.89302C6.32223 7.93036 6.30492 7.95045 6.30032 7.95628C6.28979 7.98448 6.28979 8.01553 6.30032 8.04372C6.30492 8.04956 6.32223 8.06965 6.36962 8.10698C6.44644 8.16751 6.55824 8.24062 6.73627 8.35634L9.83236 10.3688C10.172 10.5896 10.2662 10.6444 10.3572 10.6658C10.4511 10.6878 10.5489 10.6878 10.6428 10.6658C10.7338 10.6444 10.8279 10.5896 11.1676 10.3688L14.2637 8.35634C14.4417 8.24062 14.5535 8.16751 14.6303 8.10698C14.6777 8.06965 14.695 8.04956 14.6996 8.04372C14.7102 8.01553 14.7102 7.98448 14.6996 7.95629C14.695 7.95045 14.6777 7.93036 14.6303 7.89302C14.5535 7.83249 14.4417 7.75939 14.2637 7.64366L11.1676 5.63121C10.8279 5.41042 10.7338 5.35558 10.6428 5.33422C10.5489 5.31218 10.4511 5.31218 10.3572 5.33422C10.2662 5.35558 10.172 5.41042 9.83236 5.63121ZM15.125 8.67155C15.1148 8.67996 15.1046 8.68813 15.0945 8.69611C14.9875 8.7804 14.8463 8.87214 14.6861 8.97628L12.4269 10.4448L15.1165 12.8741C15.1248 12.6719 15.125 12.423 15.125 12.1V8.67155ZM14.8936 13.6834L11.7762 10.8677L11.5763 10.9976C11.5602 11.0081 11.5443 11.0185 11.5285 11.0287C11.2601 11.2035 11.0495 11.3407 10.8142 11.3959C10.6075 11.4444 10.3924 11.4444 10.1858 11.3959C9.95047 11.3407 9.7398 11.2035 9.47141 11.0287C9.45568 11.0185 9.43976 11.0081 9.42362 10.9976L9.22374 10.8677L6.10635 13.6834C6.20801 13.8164 6.3386 13.9256 6.48923 14.0024C6.58799 14.0527 6.71837 14.0873 6.94531 14.1058C7.17663 14.1247 7.47375 14.125 7.89997 14.125H13.1C13.5262 14.125 13.8233 14.1247 14.0546 14.1058C14.2816 14.0873 14.412 14.0527 14.5107 14.0024C14.6613 13.9256 14.7919 13.8164 14.8936 13.6834ZM5.88345 12.8741L8.57307 10.4448L6.31385 8.97628C6.15361 8.87214 6.01246 8.7804 5.90547 8.69611C5.89535 8.68813 5.88517 8.67996 5.87497 8.67155V12.1C5.87497 12.423 5.87514 12.6719 5.88345 12.8741ZM5.88072 8.23377C5.88072 8.23378 5.88067 8.23402 5.88054 8.23444L5.88072 8.23377Z" fill="#515B70"/>
</svg>
