<svg width="21" height="20" viewBox="0 0 21 20" fill="none" xmlns="http://www.w3.org/2000/svg">
<rect x="0.5" width="20" height="20" rx="10" fill="#C3DFF8"/>
<path fill-rule="evenodd" clip-rule="evenodd" d="M7.88398 5.625H13.1161C13.5225 5.625 13.8503 5.62499 14.1158 5.64668C14.3891 5.66901 14.6292 5.71619 14.8513 5.82936C15.2041 6.00913 15.4909 6.29596 15.6707 6.64877C15.782 6.86728 15.8295 7.10317 15.8522 7.37101C15.8777 7.4403 15.8815 7.5145 15.8654 7.58433C15.875 7.80998 15.875 8.07412 15.875 8.38394V11.6161C15.875 12.0225 15.875 12.3503 15.8534 12.6157C15.831 12.8891 15.7838 13.1291 15.6707 13.3512C15.4909 13.704 15.2041 13.9909 14.8513 14.1706C14.6292 14.2838 14.3891 14.331 14.1158 14.3533C13.8503 14.375 13.5225 14.375 13.1161 14.375H7.88397C7.47756 14.375 7.14975 14.375 6.8843 14.3533C6.61098 14.331 6.37091 14.2838 6.1488 14.1706C5.796 13.9909 5.50916 13.704 5.32939 13.3512C5.21622 13.1291 5.16904 12.8891 5.14671 12.6157C5.12503 12.3503 5.12503 12.0225 5.12503 11.6161V8.38395C5.12503 8.07413 5.12503 7.80999 5.13463 7.58433C5.11854 7.51451 5.12239 7.44029 5.14782 7.371C5.17059 7.10317 5.21806 6.86728 5.32939 6.64877C5.50916 6.29596 5.796 6.00913 6.1488 5.82936C6.37091 5.71619 6.61098 5.66901 6.8843 5.64668C7.14975 5.62499 7.47756 5.625 7.88398 5.625ZM5.87511 8.2203C5.87504 8.27755 5.87503 8.33738 5.87503 8.4V11.6C5.87503 11.923 5.8752 12.1719 5.88351 12.3741L8.47076 10.0373L5.87511 8.2203ZM9.27981 9.6881L5.90643 7.32673C5.92637 7.17032 5.95683 7.06938 5.99765 6.98926C6.10551 6.77758 6.27761 6.60548 6.48929 6.49762C6.58805 6.4473 6.71843 6.41273 6.94537 6.39419C7.17669 6.37529 7.47381 6.375 7.90003 6.375H13.1C13.5263 6.375 13.8234 6.37529 14.0547 6.39419C14.2816 6.41273 14.412 6.4473 14.5108 6.49762C14.7225 6.60548 14.8946 6.77758 15.0024 6.98926C15.0432 7.06938 15.0737 7.17032 15.0936 7.32673L11.7203 9.68809C11.7159 9.69099 11.7116 9.694 11.7074 9.6971L11.2025 10.0505C10.8465 10.2997 10.7473 10.3618 10.6512 10.3858C10.5519 10.4105 10.4481 10.4105 10.3489 10.3858C10.2528 10.3618 10.1535 10.2997 9.79754 10.0505L9.29266 9.69709C9.28843 9.694 9.28414 9.691 9.27981 9.6881ZM9.10114 10.4785L6.10642 13.1834C6.20808 13.3164 6.33867 13.4256 6.48929 13.5024C6.58805 13.5527 6.71843 13.5873 6.94537 13.6058C7.17669 13.6247 7.47381 13.625 7.90003 13.625H13.1C13.5263 13.625 13.8234 13.6247 14.0547 13.6058C14.2816 13.5873 14.412 13.5527 14.5108 13.5024C14.6614 13.4256 14.792 13.3164 14.8936 13.1834L11.8989 10.4785L11.6326 10.6649C11.6156 10.6768 11.5989 10.6886 11.5823 10.7002C11.3016 10.8971 11.0814 11.0515 10.8326 11.1135C10.6142 11.168 10.3858 11.168 10.1675 11.1135C9.91864 11.0515 9.69848 10.8971 9.41776 10.7002C9.4012 10.6886 9.38444 10.6768 9.36744 10.6649L9.10114 10.4785ZM12.5293 10.0373L15.1166 12.3741C15.1249 12.1719 15.125 11.923 15.125 11.6V8.4C15.125 8.33738 15.125 8.27755 15.125 8.2203L12.5293 10.0373Z" fill="#1881DC"/>
</svg>
