<svg width="27" height="27" viewBox="0 0 27 27" fill="none" xmlns="http://www.w3.org/2000/svg">
<path fill-rule="evenodd" clip-rule="evenodd" d="M7.85719 2.56326e-07H19.1428C20.2266 -9.59831e-06 21.1007 -1.76231e-05 21.8086 0.0578184C22.5375 0.117368 23.1777 0.24318 23.77 0.544968C24.7108 1.02433 25.4757 1.78924 25.955 2.73005C26.2568 3.32234 26.3826 3.96253 26.4422 4.69138C26.5 5.39925 26.5 6.27339 26.5 7.35717V15.0355C26.5 15.9373 26.5 16.6647 26.4596 17.2567C26.4181 17.8654 26.3305 18.4037 26.1194 18.9134C25.6119 20.1386 24.6386 21.1119 23.4134 21.6194C22.9037 21.8305 22.3654 21.9181 21.7567 21.9596C21.1647 22 20.4373 22 19.5355 22H19.5C18.8006 22 18.6126 22.0063 18.4504 22.0446C18.1986 22.104 17.9641 22.2213 17.7654 22.3871C17.6374 22.4939 17.5197 22.6405 17.1 23.2L15.1339 25.8215C15.0063 25.9917 14.874 26.1681 14.749 26.3072C14.6133 26.458 14.407 26.6577 14.1041 26.7755C13.7155 26.9267 13.2845 26.9267 12.8959 26.7755C12.593 26.6577 12.3867 26.458 12.251 26.3072C12.126 26.1681 11.9937 25.9917 11.8661 25.8215L9.9 23.2C9.48035 22.6405 9.36256 22.4939 9.23458 22.3871C9.03593 22.2213 8.80141 22.104 8.54959 22.0446C8.38736 22.0063 8.19942 22 7.5 22H7.46448C6.56272 22 5.83531 22 5.24331 21.9596C4.63456 21.9181 4.09628 21.8305 3.58658 21.6194C2.36144 21.1119 1.38807 20.1386 0.880603 18.9134C0.669479 18.4037 0.581915 17.8654 0.54038 17.2567C0.499988 16.6647 0.499994 15.9373 0.5 15.0355L0.5 7.35719C0.49999 6.27341 0.499982 5.39926 0.557818 4.69138C0.617368 3.96253 0.74318 3.32234 1.04497 2.73005C1.52433 1.78924 2.28924 1.02433 3.23005 0.544968C3.82234 0.24318 4.46253 0.117368 5.19138 0.0578184C5.89926 -1.76231e-05 6.77341 -9.59831e-06 7.85719 2.56326e-07ZM5.35424 2.05118C4.74907 2.10062 4.40138 2.19279 4.13803 2.32698C3.57354 2.6146 3.1146 3.07354 2.82698 3.63803C2.69279 3.90138 2.60062 4.24907 2.55118 4.85424C2.50078 5.47108 2.5 6.26339 2.5 7.4V15C2.5 15.9456 2.50054 16.6047 2.53574 17.1206C2.57033 17.6275 2.635 17.9227 2.72836 18.1481C3.03284 18.8831 3.61687 19.4672 4.35195 19.7716C4.57734 19.865 4.87254 19.9297 5.37945 19.9643C5.89534 19.9995 6.55444 20 7.5 20C7.53284 20 7.56526 20 7.59728 20C8.15383 19.9996 8.59102 19.9994 9.0091 20.0981C9.5631 20.2289 10.079 20.4868 10.5161 20.8516C10.8459 21.1268 11.108 21.4767 11.4417 21.9222C11.4609 21.9478 11.4803 21.9737 11.5 22L13.4467 24.5956C13.4654 24.6206 13.4832 24.6442 13.5 24.6666C13.5168 24.6442 13.5346 24.6206 13.5533 24.5956L15.5 22C15.5197 21.9737 15.5391 21.9478 15.5583 21.9221C15.892 21.4767 16.1541 21.1268 16.4839 20.8516C16.921 20.4868 17.4369 20.2289 17.9909 20.0981C18.409 19.9994 18.8462 19.9996 19.4027 20C19.4347 20 19.4672 20 19.5 20C20.4456 20 21.1047 19.9995 21.6206 19.9643C22.1275 19.9297 22.4227 19.865 22.6481 19.7716C23.3831 19.4672 23.9672 18.8831 24.2716 18.1481C24.365 17.9227 24.4297 17.6275 24.4643 17.1206C24.4995 16.6047 24.5 15.9456 24.5 15V7.4C24.5 6.26339 24.4992 5.47108 24.4488 4.85424C24.3994 4.24907 24.3072 3.90138 24.173 3.63803C23.8854 3.07354 23.4265 2.6146 22.862 2.32698C22.5986 2.19279 22.2509 2.10062 21.6458 2.05118C21.0289 2.00078 20.2366 2 19.1 2H7.9C6.7634 2 5.97108 2.00078 5.35424 2.05118ZM13.5 6C14.0523 6 14.5 6.44772 14.5 7V10H17.5C18.0523 10 18.5 10.4477 18.5 11C18.5 11.5523 18.0523 12 17.5 12H14.5V15C14.5 15.5523 14.0523 16 13.5 16C12.9477 16 12.5 15.5523 12.5 15V12H9.5C8.94772 12 8.5 11.5523 8.5 11C8.5 10.4477 8.94772 10 9.5 10H12.5V7C12.5 6.44772 12.9477 6 13.5 6Z" fill="white"/>
</svg>
