<svg width="12" height="12" viewBox="0 0 12 12" fill="none" xmlns="http://www.w3.org/2000/svg">
<g clip-path="url(#clip0_327_1226)">
<path fill-rule="evenodd" clip-rule="evenodd" d="M10.0002 2.52993L7.0237 10.1572C7.0155 10.1782 7.00774 10.198 7.00037 10.2169C6.99302 10.198 6.98528 10.1782 6.97711 10.1571L5.68795 6.84216L10.0002 2.52993ZM5.15762 6.31183L9.46985 1.9996L1.84262 4.97608C1.8216 4.98428 1.80173 4.99204 1.78292 4.99941C1.80174 5.00675 1.82162 5.01449 1.84264 5.02267L5.15762 6.31183ZM10.3584 0.857118C10.4466 0.831509 10.5985 0.79417 10.7577 0.847334C10.944 0.909575 11.0902 1.05578 11.1524 1.2421C11.2056 1.40124 11.1683 1.55316 11.1427 1.64133C11.1153 1.7356 11.0707 1.84977 11.0231 1.97181L7.71672 10.4443C7.66356 10.5806 7.61496 10.7052 7.56813 10.7999C7.52631 10.8844 7.44634 11.0338 7.2883 11.1159C7.10744 11.2099 6.89213 11.2098 6.71138 11.1156C6.55344 11.0333 6.47364 10.8838 6.43192 10.7992C6.38521 10.7044 6.33675 10.5798 6.28375 10.4435L4.96405 7.04997C4.96264 7.04633 4.96131 7.04293 4.96006 7.03972C4.95685 7.03847 4.95344 7.03714 4.94981 7.03573L1.55631 5.71603C1.41999 5.66303 1.29535 5.61457 1.2006 5.56786C1.11596 5.52614 0.966483 5.44634 0.884196 5.2884C0.790024 5.10765 0.789897 4.89234 0.883856 4.71148C0.965958 4.55344 1.11534 4.47347 1.19993 4.43164C1.29462 4.38482 1.41919 4.33622 1.55545 4.28306L10.028 0.97669C10.15 0.929058 10.2642 0.884496 10.3584 0.857118Z" fill="white"/>
</g>
<defs>
<clipPath id="clip0_327_1226">
<rect width="12" height="12" fill="white"/>
</clipPath>
</defs>
</svg>
