<svg width="10" height="9" viewBox="0 0 10 9" fill="none" xmlns="http://www.w3.org/2000/svg">
<path fill-rule="evenodd" clip-rule="evenodd" d="M6.56832 0.979539C5.80915 0.641273 4.96098 0.557473 4.15029 0.740637C3.3396 0.923801 2.60984 1.36412 2.06985 1.99591C1.52985 2.62771 1.20855 3.41713 1.15386 4.24645C1.09918 5.07577 1.31404 5.90055 1.7664 6.59778C2.21876 7.29502 2.88439 7.82734 3.664 8.11537C4.44362 8.4034 5.29546 8.43169 6.09247 8.19604C6.88948 7.96039 7.58897 7.47342 8.08661 6.80774C8.58424 6.14207 8.85337 5.33337 8.85384 4.50225V4.11909C8.85384 3.9465 8.99376 3.80659 9.16634 3.80659C9.33893 3.80659 9.47884 3.9465 9.47884 4.11909V4.50243C9.47829 5.46832 9.16552 6.40834 8.58719 7.18196C8.00885 7.95558 7.19594 8.52153 6.26968 8.79539C5.34342 9.06926 4.35345 9.03637 3.44741 8.70164C2.54137 8.3669 1.7678 7.74825 1.24208 6.93796C0.716367 6.12766 0.466664 5.16913 0.530217 4.20533C0.59377 3.24152 0.967173 2.32408 1.59474 1.58984C2.2223 0.855586 3.0704 0.343869 4.01255 0.131003C4.9547 -0.0818631 5.94042 0.0155262 6.8227 0.408646C6.98035 0.47889 7.0512 0.663633 6.98096 0.82128C6.91071 0.978928 6.72597 1.04978 6.56832 0.979539ZM9.3872 0.945626C9.5093 1.0676 9.5094 1.26547 9.38742 1.38757L5.22076 5.5584C5.16216 5.61706 5.08266 5.65002 4.99975 5.65004C4.91685 5.65006 4.83733 5.61714 4.7787 5.55851L3.5287 4.30851C3.40667 4.18647 3.40667 3.98861 3.5287 3.86657C3.65074 3.74453 3.84861 3.74453 3.97065 3.86657L4.99956 4.89549L8.94526 0.945847C9.06724 0.823747 9.2651 0.823649 9.3872 0.945626Z" fill="#636F88"/>
</svg>
