<svg width="21" height="21" viewBox="0 0 21 21" fill="none" xmlns="http://www.w3.org/2000/svg">
<path fill-rule="evenodd" clip-rule="evenodd" d="M7.47325 1.54166H12.8601C13.5375 1.54166 14.0838 1.54165 14.5262 1.5778C14.9818 1.61502 15.3819 1.69365 15.7521 1.88227C16.3401 2.18187 16.8181 2.65994 17.1177 3.24794C17.3063 3.61813 17.385 4.01824 17.4222 4.47377C17.4583 4.9162 17.4583 5.46254 17.4583 6.13989V10.9167C17.4583 11.2618 17.1785 11.5417 16.8333 11.5417C16.4882 11.5417 16.2083 11.2618 16.2083 10.9167V6.16666C16.2083 5.45629 16.2078 4.96109 16.1763 4.57556C16.1454 4.19733 16.0878 3.98003 16.004 3.81543C15.8242 3.46263 15.5374 3.17579 15.1846 2.99603C15.02 2.91216 14.8027 2.85455 14.4244 2.82365C14.0389 2.79215 13.5437 2.79166 12.8333 2.79166H7.5C6.78962 2.79166 6.29443 2.79215 5.9089 2.82365C5.53067 2.85455 5.31337 2.91216 5.14877 2.99603C4.79596 3.17579 4.50913 3.46263 4.32936 3.81543C4.2455 3.98003 4.18789 4.19733 4.15699 4.57556C4.12549 4.96109 4.125 5.45629 4.125 6.16666V14.8333C4.125 15.5437 4.12549 16.0389 4.15699 16.4244C4.18789 16.8027 4.2455 17.02 4.32936 17.1846C4.50913 17.5374 4.79596 17.8242 5.14877 18.004C5.31337 18.0878 5.53067 18.1454 5.9089 18.1763C6.29443 18.2078 6.78962 18.2083 7.5 18.2083H10.1667C10.5118 18.2083 10.7917 18.4882 10.7917 18.8333C10.7917 19.1785 10.5118 19.4583 10.1667 19.4583H7.47323C6.79587 19.4583 6.24953 19.4583 5.80711 19.4222C5.35158 19.385 4.95146 19.3063 4.58128 19.1177C3.99327 18.8181 3.51521 18.3401 3.21561 17.7521C3.02699 17.3819 2.94835 16.9818 2.91114 16.5262C2.87499 16.0838 2.87499 15.5374 2.875 14.8601V6.13991C2.87499 5.46254 2.87499 4.9162 2.91114 4.47377C2.94835 4.01824 3.02699 3.61813 3.2156 3.24794C3.51521 2.65994 3.99327 2.18187 4.58128 1.88227C4.95146 1.69365 5.35158 1.61502 5.80711 1.5778C6.24954 1.54165 6.79588 1.54166 7.47325 1.54166ZM6.20833 6.33333C6.20833 5.98815 6.48816 5.70833 6.83333 5.70833H13.5C13.8452 5.70833 14.125 5.98815 14.125 6.33333C14.125 6.67851 13.8452 6.95833 13.5 6.95833H6.83333C6.48816 6.95833 6.20833 6.67851 6.20833 6.33333ZM6.20833 9.66666C6.20833 9.32149 6.48816 9.04166 6.83333 9.04166H11.8333C12.1785 9.04166 12.4583 9.32149 12.4583 9.66666C12.4583 10.0118 12.1785 10.2917 11.8333 10.2917H6.83333C6.48816 10.2917 6.20833 10.0118 6.20833 9.66666ZM6.20833 13C6.20833 12.6548 6.48816 12.375 6.83333 12.375H8.5C8.84518 12.375 9.125 12.6548 9.125 13C9.125 13.3452 8.84518 13.625 8.5 13.625H6.83333C6.48816 13.625 6.20833 13.3452 6.20833 13ZM18.1086 13.8081C18.3527 14.0521 18.3527 14.4479 18.1086 14.6919L14.3586 18.4419C14.1145 18.686 13.7188 18.686 13.4747 18.4419L11.8081 16.7753C11.564 16.5312 11.564 16.1355 11.8081 15.8914C12.0521 15.6473 12.4479 15.6473 12.6919 15.8914L13.9167 17.1161L17.2247 13.8081C17.4688 13.564 17.8645 13.564 18.1086 13.8081Z" fill="#231F20"/>
</svg>
