<svg width="184" height="30" viewBox="0 0 184 30" fill="none" xmlns="http://www.w3.org/2000/svg">
<path d="M0.0909091 4.6981V0.280489H23.3011V4.6981H14.3097V29.3714H9.08239V4.6981H0.0909091ZM34.0433 29.7975C31.8558 29.7975 29.9666 29.343 28.3757 28.4339C26.7943 27.5153 25.5774 26.218 24.7251 24.5419C23.8729 22.8562 23.4467 20.8723 23.4467 18.5901C23.4467 16.3458 23.8729 14.3761 24.7251 12.6811C25.5869 10.9765 26.7895 9.65075 28.3331 8.70378C29.8767 7.74735 31.6901 7.26913 33.7734 7.26913C35.1181 7.26913 36.3871 7.48693 37.5803 7.92253C38.7829 8.34867 39.8435 9.01155 40.7621 9.91117C41.6901 10.8108 42.4193 11.9566 42.9496 13.3487C43.4799 14.7312 43.745 16.379 43.745 18.2919V19.8686H25.8615V16.4026H38.8161C38.8066 15.4178 38.5935 14.5419 38.1768 13.7748C37.7602 12.9983 37.1778 12.3875 36.4297 11.9424C35.6911 11.4973 34.8293 11.2748 33.8445 11.2748C32.7933 11.2748 31.87 11.5305 31.0746 12.0419C30.2791 12.5437 29.6589 13.2066 29.2138 14.0305C28.7782 14.8449 28.5556 15.7398 28.5462 16.7151V19.7407C28.5462 21.0097 28.7782 22.0987 29.2422 23.0078C29.7062 23.9074 30.3549 24.5987 31.1882 25.0816C32.0215 25.5551 32.9969 25.7919 34.1143 25.7919C34.8625 25.7919 35.5395 25.6877 36.1456 25.4794C36.7517 25.2616 37.2772 24.9443 37.7223 24.5276C38.1674 24.111 38.5036 23.5949 38.7308 22.9794L43.532 23.5191C43.2289 24.7881 42.6513 25.896 41.799 26.843C40.9562 27.7805 39.8767 28.5097 38.5604 29.0305C37.2441 29.5419 35.7384 29.7975 34.0433 29.7975ZM54.3736 29.8117C52.991 29.8117 51.7457 29.5655 50.6378 29.0731C49.5393 28.5712 48.6681 27.8326 48.0241 26.8572C47.3897 25.8818 47.0724 24.6792 47.0724 23.2492C47.0724 22.0182 47.2997 21.0002 47.7543 20.1953C48.2088 19.3903 48.8291 18.7464 49.6151 18.2634C50.401 17.7805 51.2865 17.4159 52.2713 17.1697C53.2656 16.914 54.2931 16.7294 55.3537 16.6157C56.6321 16.4831 57.669 16.3648 58.4645 16.2606C59.2599 16.147 59.8376 15.9765 60.1974 15.7492C60.5668 15.5125 60.7514 15.1479 60.7514 14.6555V14.5703C60.7514 13.5002 60.4342 12.6716 59.7997 12.0845C59.1652 11.4973 58.2514 11.2038 57.0582 11.2038C55.7988 11.2038 54.7997 11.4784 54.0611 12.0276C53.3319 12.5769 52.8395 13.2256 52.5838 13.9737L47.7827 13.2919C48.1615 11.9661 48.7865 10.8581 49.6577 9.96799C50.5289 9.06837 51.5942 8.39602 52.8537 7.95094C54.1132 7.4964 55.5052 7.26913 57.0298 7.26913C58.081 7.26913 59.1274 7.39223 60.169 7.63844C61.2107 7.88466 62.1624 8.29185 63.0241 8.86003C63.8859 9.41875 64.5772 10.1811 65.098 11.147C65.6283 12.1129 65.8935 13.3203 65.8935 14.7691V29.3714H60.9503V26.3742H60.7798C60.4673 26.9803 60.027 27.5485 59.4588 28.0788C58.9001 28.5996 58.1946 29.021 57.3423 29.343C56.4995 29.6555 55.5099 29.8117 54.3736 29.8117ZM55.7088 26.0333C56.741 26.0333 57.6359 25.8297 58.3935 25.4225C59.151 25.0059 59.7334 24.4566 60.1406 23.7748C60.5573 23.093 60.7656 22.3496 60.7656 21.5447V18.9737C60.6046 19.1062 60.33 19.2294 59.9418 19.343C59.563 19.4566 59.1368 19.5561 58.6634 19.6413C58.1899 19.7265 57.7211 19.8023 57.2571 19.8686C56.7931 19.9348 56.3906 19.9917 56.0497 20.039C55.2827 20.1432 54.5961 20.3136 53.9901 20.5504C53.384 20.7871 52.9058 21.1186 52.5554 21.5447C52.205 21.9614 52.0298 22.5011 52.0298 23.164C52.0298 24.111 52.3755 24.8259 53.0668 25.3089C53.758 25.7919 54.6387 26.0333 55.7088 26.0333ZM71.0639 29.3714V7.55322H75.9787V11.2606H76.2344C76.6889 10.0106 77.4418 9.03522 78.4929 8.33447C79.544 7.62424 80.7988 7.26913 82.2571 7.26913C83.7344 7.26913 84.9796 7.62897 85.9929 8.34867C87.0156 9.0589 87.7353 10.0295 88.152 11.2606H88.3793C88.8622 10.0485 89.6766 9.08257 90.8224 8.36288C91.9777 7.63371 93.3461 7.26913 94.9276 7.26913C96.9351 7.26913 98.5734 7.9036 99.8423 9.17253C101.111 10.4415 101.746 12.2928 101.746 14.7265V29.3714H96.5895V15.522C96.5895 14.1678 96.2296 13.1782 95.5099 12.5532C94.7902 11.9187 93.9096 11.6015 92.8679 11.6015C91.6274 11.6015 90.6567 11.9898 89.956 12.7663C89.2647 13.5333 88.919 14.5324 88.919 15.7634V29.3714H83.8764V15.3089C83.8764 14.182 83.5355 13.2824 82.8537 12.61C82.1813 11.9377 81.3007 11.6015 80.2116 11.6015C79.473 11.6015 78.8007 11.7909 78.1946 12.1697C77.5885 12.539 77.1056 13.0646 76.7457 13.7464C76.3859 14.4187 76.206 15.2047 76.206 16.1044V29.3714H71.0639Z" fill="black"/>
<path d="M105.911 4.6981V0.280489H129.121V4.6981H120.13V29.3714H114.903V4.6981H105.911ZM136.678 29.8117C135.296 29.8117 134.05 29.5655 132.942 29.0731C131.844 28.5712 130.973 27.8326 130.329 26.8572C129.694 25.8818 129.377 24.6792 129.377 23.2492C129.377 22.0182 129.604 21.0002 130.059 20.1953C130.513 19.3903 131.134 18.7464 131.92 18.2634C132.706 17.7805 133.591 17.4159 134.576 17.1697C135.57 16.914 136.598 16.7294 137.658 16.6157C138.937 16.4831 139.974 16.3648 140.769 16.2606C141.565 16.147 142.142 15.9765 142.502 15.7492C142.871 15.5125 143.056 15.1479 143.056 14.6555V14.5703C143.056 13.5002 142.739 12.6716 142.104 12.0845C141.47 11.4973 140.556 11.2038 139.363 11.2038C138.103 11.2038 137.104 11.4784 136.366 12.0276C135.637 12.5769 135.144 13.2256 134.888 13.9737L130.087 13.2919C130.466 11.9661 131.091 10.8581 131.962 9.96799C132.834 9.06837 133.899 8.39602 135.158 7.95094C136.418 7.4964 137.81 7.26913 139.335 7.26913C140.386 7.26913 141.432 7.39223 142.474 7.63844C143.515 7.88466 144.467 8.29185 145.329 8.86003C146.191 9.41875 146.882 10.1811 147.403 11.147C147.933 12.1129 148.198 13.3203 148.198 14.7691V29.3714H143.255V26.3742H143.085C142.772 26.9803 142.332 27.5485 141.763 28.0788C141.205 28.5996 140.499 29.021 139.647 29.343C138.804 29.6555 137.815 29.8117 136.678 29.8117ZM138.013 26.0333C139.046 26.0333 139.941 25.8297 140.698 25.4225C141.456 25.0059 142.038 24.4566 142.445 23.7748C142.862 23.093 143.07 22.3496 143.07 21.5447V18.9737C142.909 19.1062 142.635 19.2294 142.246 19.343C141.868 19.4566 141.442 19.5561 140.968 19.6413C140.495 19.7265 140.026 19.8023 139.562 19.8686C139.098 19.9348 138.695 19.9917 138.354 20.039C137.587 20.1432 136.901 20.3136 136.295 20.5504C135.689 20.7871 135.21 21.1186 134.86 21.5447C134.51 21.9614 134.335 22.5011 134.335 23.164C134.335 24.111 134.68 24.8259 135.371 25.3089C136.063 25.7919 136.943 26.0333 138.013 26.0333ZM158.511 0.280489V29.3714H153.369V0.280489H158.511ZM168.486 22.5248L168.472 16.3174H169.295L177.136 7.55322H183.145L173.5 18.2919H172.435L168.486 22.5248ZM163.798 29.3714V0.280489H168.94V29.3714H163.798ZM177.491 29.3714L170.389 19.4424L173.855 15.8203L183.642 29.3714H177.491Z" fill="#1881DC"/>
</svg>
