<svg width="12" height="12" viewBox="0 0 12 12" fill="none" xmlns="http://www.w3.org/2000/svg">
<path fill-rule="evenodd" clip-rule="evenodd" d="M6 1.875C4.96447 1.875 4.125 2.71447 4.125 3.75C4.125 4.78553 4.96447 5.625 6 5.625C7.03553 5.625 7.875 4.78553 7.875 3.75C7.875 2.71447 7.03553 1.875 6 1.875ZM3.375 3.75C3.375 2.30025 4.55025 1.125 6 1.125C7.44975 1.125 8.625 2.30025 8.625 3.75C8.625 5.19975 7.44975 6.375 6 6.375C4.55025 6.375 3.375 5.19975 3.375 3.75ZM6 8.375C4.36668 8.375 2.87697 9.08618 1.77285 10.2573C1.63077 10.4079 1.39344 10.4149 1.24275 10.2729C1.09206 10.1308 1.08508 9.89344 1.22715 9.74275C2.45882 8.4364 4.14034 7.625 6 7.625C7.85966 7.625 9.54118 8.4364 10.7729 9.74275C10.9149 9.89344 10.9079 10.1308 10.7573 10.2729C10.6066 10.4149 10.3692 10.4079 10.2272 10.2573C9.12303 9.08618 7.63332 8.375 6 8.375Z" fill="white"/>
</svg>
